<svg width="12" height="14" viewBox="0 0 12 14" fill="none" xmlns="http://www.w3.org/2000/svg">
<path d="M2.30732 0H9.55891C9.66125 0 9.76219 0.0247445 9.85373 0.072274C9.94526 0.119804 10.0249 0.188813 10.0863 0.273836L11.8662 2.73836V13.0072C11.8662 13.1888 11.7968 13.3629 11.6731 13.4913C11.5495 13.6197 11.3818 13.6918 11.207 13.6918H0.659235C0.484395 13.6918 0.316716 13.6197 0.193085 13.4913C0.0694549 13.3629 0 13.1888 0 13.0072V2.73836L1.77993 0.273836C1.84134 0.188813 1.92097 0.119804 2.0125 0.072274C2.10404 0.0247445 2.20498 0 2.30732 0ZM10.2181 2.73836L9.22929 1.36918H2.63694L1.64809 2.73836H10.2181ZM3.95541 5.47672H2.63694V6.8459C2.63694 7.75372 2.98421 8.62437 3.60237 9.26629C4.22052 9.90822 5.05891 10.2689 5.93311 10.2689C6.80731 10.2689 7.64571 9.90822 8.26386 9.26629C8.88201 8.62437 9.22929 7.75372 9.22929 6.8459V5.47672H7.91082V6.8459C7.91082 7.3906 7.70246 7.91298 7.33156 8.29814C6.96067 8.68329 6.45763 8.89967 5.93311 8.89967C5.40859 8.89967 4.90556 8.68329 4.53467 8.29814C4.16377 7.91298 3.95541 7.3906 3.95541 6.8459V5.47672Z" fill="white"/>
</svg>
