<svg width="156" height="58" viewBox="0 0 156 58" fill="none" xmlns="http://www.w3.org/2000/svg">
<path d="M25.8701 3H38.518V9.0365H25.8701V3Z" fill="white"/>
<path d="M25.8701 48.9922H38.518V55.0287H25.8701V48.9922Z" fill="white"/>
<path d="M26.0144 3C22.5982 3 19.2154 3.67288 16.0591 4.98023C12.9029 6.28758 10.0351 8.20379 7.61945 10.6194C5.20379 13.0351 3.28758 15.9029 1.98023 19.0591C0.672883 22.2154 -1.08591e-07 25.5982 0 29.0144C1.08591e-07 32.4307 0.672883 35.8135 1.98023 38.9697C3.28758 42.1259 5.20379 44.9937 7.61945 47.4094C10.0351 49.8251 12.9029 51.7413 16.0591 53.0486C19.2154 54.356 22.5982 55.0289 26.0144 55.0289V48.9935C23.3907 48.9935 20.7927 48.4767 18.3688 47.4727C15.9448 46.4686 13.7423 44.997 11.8871 43.1418C10.0319 41.2865 8.56021 39.0841 7.55616 36.6601C6.55212 34.2361 6.03535 31.6381 6.03535 29.0144C6.03535 26.3907 6.55212 23.7927 7.55616 21.3688C8.56021 18.9448 10.0319 16.7423 11.8871 14.8871C13.7423 13.0319 15.9448 11.5602 18.3688 10.5562C20.7927 9.55212 23.3907 9.03535 26.0144 9.03535V3Z" fill="white"/>
<path d="M33.7663 50.2389L33.5023 51.2911H30.3345V46.1617C29.129 46.0866 28.1691 45.1236 28.0979 43.9178L28.0906 43.7943H25.5827V30.1159L22.8109 28.0115H19.247L18.8511 28.2746L18.0591 27.2224L19.775 23.4082H31.2584L32.9743 27.3539L32.3144 28.2746L35.6142 30.7735L38.5181 46.0302V50.2389H33.7663Z" fill="white"/>
<path d="M17.3991 50.2389H12.6474V46.0302L15.5512 30.7735L18.4551 33.93L16.8712 47.8715L17.3991 50.2389Z" fill="white"/>
<path d="M58.275 10.5H60.45V23H58.275V21.2C57.3917 22.6167 56.0417 23.325 54.225 23.325C52.7583 23.325 51.5833 22.8667 50.7 21.95C49.8167 21.0167 49.375 19.7583 49.375 18.175V10.5H51.55V18.05C51.55 19.0667 51.825 19.8583 52.375 20.425C52.925 20.975 53.6833 21.25 54.65 21.25C55.7333 21.25 56.6083 20.9167 57.275 20.25C57.9417 19.5667 58.275 18.525 58.275 17.125V10.5ZM65.6119 13.875C65.6119 14.3583 65.8536 14.75 66.3369 15.05C66.8202 15.3333 67.4036 15.5667 68.0869 15.75C68.7702 15.9167 69.4536 16.1167 70.1369 16.35C70.8202 16.5667 71.4036 16.95 71.8869 17.5C72.3702 18.0333 72.6119 18.725 72.6119 19.575C72.6119 20.7083 72.1702 21.6167 71.2869 22.3C70.4202 22.9833 69.3036 23.325 67.9369 23.325C66.7202 23.325 65.6786 23.0583 64.8119 22.525C63.9452 21.9917 63.3286 21.2833 62.9619 20.4L64.8369 19.325C65.0369 19.925 65.4119 20.4 65.9619 20.75C66.5119 21.1 67.1702 21.275 67.9369 21.275C68.6536 21.275 69.2452 21.1417 69.7119 20.875C70.1786 20.5917 70.4119 20.1583 70.4119 19.575C70.4119 19.0917 70.1702 18.7083 69.6869 18.425C69.2036 18.125 68.6202 17.8917 67.9369 17.725C67.2536 17.5417 66.5702 17.3333 65.8869 17.1C65.2036 16.8667 64.6202 16.4833 64.1369 15.95C63.6536 15.4167 63.4119 14.7333 63.4119 13.9C63.4119 12.8167 63.8286 11.925 64.6619 11.225C65.5119 10.525 66.5702 10.175 67.8369 10.175C68.8536 10.175 69.7536 10.4083 70.5369 10.875C71.3369 11.325 71.9369 11.9583 72.3369 12.775L70.5119 13.8C70.0619 12.7333 69.1702 12.2 67.8369 12.2C67.2202 12.2 66.6952 12.35 66.2619 12.65C65.8286 12.9333 65.6119 13.3417 65.6119 13.875ZM81.4988 12.6H78.1738V19.375C78.1738 19.9917 78.2905 20.4333 78.5238 20.7C78.7738 20.95 79.1488 21.0833 79.6488 21.1C80.1488 21.1 80.7655 21.0833 81.4988 21.05V23C79.5988 23.25 78.2072 23.1 77.3238 22.55C76.4405 21.9833 75.9988 20.925 75.9988 19.375V12.6H73.5238V10.5H75.9988V7.65L78.1738 7V10.5H81.4988V12.6ZM93.9891 21.425C92.7057 22.6917 91.1474 23.325 89.3141 23.325C87.4807 23.325 85.9224 22.6917 84.6391 21.425C83.3724 20.1583 82.7391 18.6 82.7391 16.75C82.7391 14.9 83.3724 13.3417 84.6391 12.075C85.9224 10.8083 87.4807 10.175 89.3141 10.175C91.1474 10.175 92.7057 10.8083 93.9891 12.075C95.2724 13.3417 95.9141 14.9 95.9141 16.75C95.9141 18.6 95.2724 20.1583 93.9891 21.425ZM89.3141 21.2C90.5641 21.2 91.6141 20.775 92.4641 19.925C93.3141 19.075 93.7391 18.0167 93.7391 16.75C93.7391 15.4833 93.3141 14.425 92.4641 13.575C91.6141 12.725 90.5641 12.3 89.3141 12.3C88.0807 12.3 87.0391 12.725 86.1891 13.575C85.3391 14.425 84.9141 15.4833 84.9141 16.75C84.9141 18.0167 85.3391 19.075 86.1891 19.925C87.0391 20.775 88.0807 21.2 89.3141 21.2ZM111.978 10.175C113.378 10.175 114.511 10.6333 115.378 11.55C116.245 12.45 116.678 13.675 116.678 15.225V23H114.503V15.3C114.503 14.3333 114.253 13.5833 113.753 13.05C113.253 12.5167 112.586 12.25 111.753 12.25C110.82 12.25 110.07 12.5667 109.503 13.2C108.953 13.8167 108.678 14.7667 108.678 16.05V23H106.503V15.3C106.503 14.3333 106.261 13.5833 105.778 13.05C105.311 12.5167 104.67 12.25 103.853 12.25C102.936 12.25 102.17 12.5667 101.553 13.2C100.953 13.8333 100.653 14.7833 100.653 16.05V23H98.4781V10.5H100.653V12.175C101.503 10.8417 102.745 10.175 104.378 10.175C106.061 10.175 107.286 10.8833 108.053 12.3C108.92 10.8833 110.228 10.175 111.978 10.175ZM85.7 34.5H88V52H85.7V44.125H77.2V52H74.875V34.5H77.2V41.925H85.7V34.5ZM102.07 50.425C100.787 51.6917 99.2285 52.325 97.3951 52.325C95.5618 52.325 94.0035 51.6917 92.7201 50.425C91.4535 49.1583 90.8201 47.6 90.8201 45.75C90.8201 43.9 91.4535 42.3417 92.7201 41.075C94.0035 39.8083 95.5618 39.175 97.3951 39.175C99.2285 39.175 100.787 39.8083 102.07 41.075C103.353 42.3417 103.995 43.9 103.995 45.75C103.995 47.6 103.353 49.1583 102.07 50.425ZM97.3951 50.2C98.6451 50.2 99.6951 49.775 100.545 48.925C101.395 48.075 101.82 47.0167 101.82 45.75C101.82 44.4833 101.395 43.425 100.545 42.575C99.6951 41.725 98.6451 41.3 97.3951 41.3C96.1618 41.3 95.1201 41.725 94.2701 42.575C93.4201 43.425 92.9951 44.4833 92.9951 45.75C92.9951 47.0167 93.4201 48.075 94.2701 48.925C95.1201 49.775 96.1618 50.2 97.3951 50.2ZM117.109 50.425C115.826 51.6917 114.268 52.325 112.434 52.325C110.601 52.325 109.043 51.6917 107.759 50.425C106.493 49.1583 105.859 47.6 105.859 45.75C105.859 43.9 106.493 42.3417 107.759 41.075C109.043 39.8083 110.601 39.175 112.434 39.175C114.268 39.175 115.826 39.8083 117.109 41.075C118.393 42.3417 119.034 43.9 119.034 45.75C119.034 47.6 118.393 49.1583 117.109 50.425ZM112.434 50.2C113.684 50.2 114.734 49.775 115.584 48.925C116.434 48.075 116.859 47.0167 116.859 45.75C116.859 44.4833 116.434 43.425 115.584 42.575C114.734 41.725 113.684 41.3 112.434 41.3C111.201 41.3 110.159 41.725 109.309 42.575C108.459 43.425 108.034 44.4833 108.034 45.75C108.034 47.0167 108.459 48.075 109.309 48.925C110.159 49.775 111.201 50.2 112.434 50.2ZM131.948 34.5H134.123V52H131.948V49.85C130.865 51.5 129.29 52.325 127.223 52.325C125.473 52.325 123.982 51.6917 122.748 50.425C121.515 49.1417 120.898 47.5833 120.898 45.75C120.898 43.9167 121.515 42.3667 122.748 41.1C123.982 39.8167 125.473 39.175 127.223 39.175C129.29 39.175 130.865 40 131.948 41.65V34.5ZM127.498 50.225C128.765 50.225 129.823 49.8 130.673 48.95C131.523 48.0833 131.948 47.0167 131.948 45.75C131.948 44.4833 131.523 43.425 130.673 42.575C129.823 41.7083 128.765 41.275 127.498 41.275C126.248 41.275 125.198 41.7083 124.348 42.575C123.498 43.425 123.073 44.4833 123.073 45.75C123.073 47.0167 123.498 48.0833 124.348 48.95C125.198 49.8 126.248 50.225 127.498 50.225ZM138.519 37.225C138.102 37.225 137.752 37.0833 137.469 36.8C137.185 36.5167 137.044 36.175 137.044 35.775C137.044 35.375 137.185 35.0333 137.469 34.75C137.752 34.45 138.102 34.3 138.519 34.3C138.919 34.3 139.26 34.45 139.544 34.75C139.827 35.0333 139.969 35.375 139.969 35.775C139.969 36.175 139.827 36.5167 139.544 36.8C139.26 37.0833 138.919 37.225 138.519 37.225ZM137.419 52V39.5H139.594V52H137.419ZM144.437 46.75C144.653 47.8667 145.162 48.7333 145.962 49.35C146.778 49.9667 147.778 50.275 148.962 50.275C150.612 50.275 151.812 49.6667 152.562 48.45L154.412 49.5C153.195 51.3833 151.362 52.325 148.912 52.325C146.928 52.325 145.312 51.7083 144.062 50.475C142.828 49.225 142.212 47.65 142.212 45.75C142.212 43.8667 142.82 42.3 144.037 41.05C145.253 39.8 146.828 39.175 148.762 39.175C150.595 39.175 152.087 39.825 153.237 41.125C154.403 42.4083 154.987 43.9583 154.987 45.775C154.987 46.0917 154.962 46.4167 154.912 46.75H144.437ZM148.762 41.225C147.595 41.225 146.628 41.5583 145.862 42.225C145.095 42.875 144.62 43.75 144.437 44.85H152.787C152.603 43.6667 152.137 42.7667 151.387 42.15C150.637 41.5333 149.762 41.225 148.762 41.225Z" fill="white"/>
</svg>
