<svg width="14" height="14" viewBox="0 0 14 14" fill="none" xmlns="http://www.w3.org/2000/svg">
<path d="M10.805 9.85198L13.6918 12.7381L12.7381 13.6918L9.85198 10.805C8.77811 11.6659 7.4424 12.1341 6.06607 12.1321C2.7176 12.1321 0 9.41455 0 6.06607C0 2.7176 2.7176 0 6.06607 0C9.41455 0 12.1321 2.7176 12.1321 6.06607C12.1341 7.4424 11.6659 8.77811 10.805 9.85198ZM9.45297 9.35186C10.3084 8.47221 10.7861 7.29306 10.7841 6.06607C10.7841 3.45901 8.67246 1.34802 6.06607 1.34802C3.45901 1.34802 1.34802 3.45901 1.34802 6.06607C1.34802 8.67246 3.45901 10.7841 6.06607 10.7841C7.29306 10.7861 8.47221 10.3084 9.35186 9.45297L9.45297 9.35186Z" fill="white"/>
</svg>
